<?xml version="1.0" encoding="utf-8"?>
<!-- Generator: Adobe Illustrator 21.0.0, SVG Export Plug-In . SVG Version: 6.00 Build 0)  -->
<svg version="1.1" id="图层_1" xmlns="http://www.w3.org/2000/svg" xmlns:xlink="http://www.w3.org/1999/xlink" x="0px"
     y="0px"
     viewBox="0 0 200 200" style="enable-background:new 0 0 200 200;" xml:space="preserve">
<style type="text/css">
	.st0{fill:#BEC9D7;}
</style>
  <path class="st0" d="M182.7,192.9c0,3.9-3.1,7.1-6.9,7.1H24.2c-3.8,0-6.9-3.2-6.9-7.1v-84.6c4.2,2.2,8.9,6,13.9,6
	c10.9,0,21.6-4.2,31.9-18c10.9,13.8,23.3,18,37,18s26.1-4.2,37-18c9.2,13.8,19.8,18,31.9,18c4.8,0,9.4-3.8,13.7-6V192.9z M35.2,0
	h129.6c2.5,0,4.9,1.4,6.1,3.7l25.4,48.7c8.2,15.7,2.5,35.2-12.6,43.7c-4.5,2.5-9.6,3.9-14.8,3.9c-12,0-22.7-6.9-31.9-20.7
	c-10.9,13.8-23.3,20.7-37,20.7s-26.1-6.9-37-20.7C52.6,93.1,42,100,31.1,100C13.9,100,0,85.6,0,67.8c0-5.3,1.3-10.6,3.7-15.3
	L29.1,3.7C30.3,1.4,32.7,0,35.2,0L35.2,0z"/>
</svg>
