<?xml version="1.0" encoding="utf-8"?>
<!-- Generator: Adobe Illustrator 21.0.0, SVG Export Plug-In . SVG Version: 6.00 Build 0)  -->
<svg version="1.1" id="图层_1" xmlns="http://www.w3.org/2000/svg" xmlns:xlink="http://www.w3.org/1999/xlink" x="0px"
     y="0px"
     viewBox="0 0 200 200" style="enable-background:new 0 0 200 200;" xml:space="preserve">
<style type="text/css">
	.st0{fill:#BEC9D7;}
</style>
  <path class="st0" d="M170.2,18.2h-30.1C138.7,12,133,7.3,126.4,7.3h-14.9c-1.9-4.7-6.4-7.8-11.6-7.8c-5.2,0-9.7,3.1-11.6,7.8H73.2
	c-6.6,0-12.3,4.7-13.7,10.9H29.4c-7.8,0-13.7,6.4-13.7,14.2v152.9c0,7.8,6.2,14.2,13.7,14.2h140.6c7.8,0,14.4-6.4,14.4-14.2V32.4
	C184.6,24.6,178,18.2,170.2,18.2L170.2,18.2z M100.1,25.1c6.4,0,11.4,5.2,11.4,11.4c0,6.4-5.2,11.4-11.4,11.4
	c-6.4,0-11.4-5.2-11.4-11.4S93.7,25.1,100.1,25.1z M143.4,142.7c0,2.8-2.4,5.2-5.2,5.2H62c-2.8,0-5.2-2.4-5.2-5.2v-4.7
	c0-2.8,2.4-5.2,5.2-5.2h76.2c2.8,0,5.2,2.4,5.2,5.2L143.4,142.7L143.4,142.7z M143.4,94.6c0,2.8-2.4,5.2-5.2,5.2H62
	c-2.8,0-5.2-2.4-5.2-5.2v-4.7c0-2.8,2.4-5.2,5.2-5.2h76.2c2.8,0,5.2,2.4,5.2,5.2L143.4,94.6L143.4,94.6z"/>
</svg>
