<?xml version="1.0" encoding="utf-8"?>
<!-- Generator: Adobe Illustrator 21.0.0, SVG Export Plug-In . SVG Version: 6.00 Build 0)  -->
<svg version="1.1" id="图层_1" xmlns="http://www.w3.org/2000/svg" xmlns:xlink="http://www.w3.org/1999/xlink" x="0px"
     y="0px"
     viewBox="0 0 200 200" style="enable-background:new 0 0 200 200;" xml:space="preserve">
<style type="text/css">
	.st0{fill:#BEC9D7;}
</style>
  <g>
	<path class="st0" d="M99.2,117.9c6.9,0,12.5-5.6,12.5-12.5c0-2.3-0.7-4.4-1.7-6.2H88.4c-1.1,1.8-1.7,4-1.7,6.2
		C86.7,112.3,92.3,117.9,99.2,117.9L99.2,117.9z"/>
    <path class="st0" d="M174.2,30.4h-37.5V17.9c0-6.9-5.6-12.5-12.5-12.5h-50c-6.9,0-12.5,5.6-12.5,12.5v12.5H24.2
		c-13.8,0-25,11.2-25,25v31.2h200V55.4C199.2,41.6,188,30.4,174.2,30.4z M124.2,30.4h-50v-6.2c0-3.4,2.8-6.2,6.2-6.2h37.5
		c3.5,0,6.3,2.8,6.3,6.2V30.4z"/>
    <path class="st0" d="M124.2,105.4c0,13.8-11.2,25-25,25c-13.8,0-25-11.2-25-25c0-2.2,0.4-4.2,0.9-6.2H-0.8v68.7
		c0,13.8,11.2,25,25,25h150c13.8,0,25-11.2,25-25V99.1h-75.9C123.8,101.2,124.2,103.2,124.2,105.4z"/>
</g>
</svg>
