<?xml version="1.0" encoding="utf-8"?>
<!-- Generator: Adobe Illustrator 21.0.0, SVG Export Plug-In . SVG Version: 6.00 Build 0)  -->
<svg version="1.1" id="图层_1" xmlns="http://www.w3.org/2000/svg" xmlns:xlink="http://www.w3.org/1999/xlink" x="0px"
     y="0px"
     viewBox="0 0 200 200" style="enable-background:new 0 0 200 200;" xml:space="preserve">
<style type="text/css">
	.st0{fill:#BEC9D7;}
</style>
  <g>
	<path class="st0" d="M188.9,128.7L101.6,165l-90.4-37.6c-4.1-1.7-8.8,0.2-10.5,4.4c-1.7,4.1,0.2,8.8,4.4,10.5l93.5,38.8
		c2.1,0.9,4.3,0.8,6.3,0c0,0,0,0,0,0l90.3-37.5c4.1-1.7,6.1-6.4,4.4-10.5C197.7,129,193,127,188.9,128.7z"/>
    <path class="st0" d="M188.9,94l-87.3,36.3L11.2,92.7C7.1,91,2.4,93,0.7,97.1s0.2,8.8,4.4,10.5l93.5,38.8c2.1,0.9,4.3,0.8,6.3,0
		c0,0,0,0,0,0l90.3-37.5c4.1-1.7,6.1-6.4,4.4-10.5C197.7,94.3,193,92.3,188.9,94z"/>
    <path class="st0" d="M5.1,70.4l93.5,38.9c2.1,0.9,4.3,0.8,6.3,0h0l90.3-37.5c4-1.7,6-6.1,4.5-10.2c-0.7-2.1-2.3-3.9-4.5-4.8
		l-93.5-38.9c-1-0.4-2.1-0.6-3.2-0.6c-1.1,0-2.1,0.2-3.2,0.6L5.1,55.4c-2.4,1-4,3-4.7,5.3c0,0,0,0.1,0,0.1v0
		C-0.7,64.7,1.3,68.8,5.1,70.4z"/>
</g>
</svg>
