<?xml version="1.0" encoding="utf-8"?>
<!-- Generator: Adobe Illustrator 21.0.0, SVG Export Plug-In . SVG Version: 6.00 Build 0)  -->
<svg version="1.1" id="图层_1" xmlns="http://www.w3.org/2000/svg" xmlns:xlink="http://www.w3.org/1999/xlink" x="0px"
     y="0px"
     viewBox="0 0 200 200" style="enable-background:new 0 0 200 200;" xml:space="preserve">
<style type="text/css">
	.st0{fill:#BEC9D7;}
</style>
  <path class="st0" d="M100,0L100,0c-6.4,0-12.5,2.6-16.9,7.3L0,95c0,0,0.2,20,10,20s15,0,15,0s0,45.4,0,65c0,19.6,20,20,20,20h40
	c0,0,0-53.2,0-70c0-5,5-5,5-5h20c0,0,5,0.2,5,5c0,18,0,70,0,70s19.5,0,40,0c20.5,0,20-20,20-20l0-70c0,0,5.3,0,15,0
	c9.7,0,10-15,10-15L116.9,7.3C112.5,2.6,106.4,0,100,0z"/>
</svg>
