<?xml version="1.0" encoding="utf-8"?>
<!-- Generator: Adobe Illustrator 21.0.0, SVG Export Plug-In . SVG Version: 6.00 Build 0)  -->
<svg version="1.1" id="图层_1" xmlns="http://www.w3.org/2000/svg" xmlns:xlink="http://www.w3.org/1999/xlink" x="0px"
     y="0px"
     viewBox="0 0 200.2 200" style="enable-background:new 0 0 200.2 200;" xml:space="preserve">
<style type="text/css">
	.st0{fill:#BEC9D7;}
</style>
  <path class="st0" d="M100,0C44.9,0,0,44.9,0,100s44.9,100,100,100s100-44.9,100-100S155.1,0,100,0z M90.9,49.5
	c0-4.7,3.8-8.5,8.5-8.5h1.1c4.7,0,8.5,3.8,8.5,8.5v64.7c0,4.7-3.8,8.5-8.5,8.5c0,0,0,0,0,0h-1.1c-4.7,0-8.5-3.8-8.5-8.5c0,0,0,0,0,0
	C90.9,114.2,90.9,49.5,90.9,49.5z M101.4,158.1c-5.8,0-10.5-4.7-10.5-10.5s4.7-10.5,10.5-10.5c5.8,0,10.5,4.7,10.5,10.5
	S107.2,158.1,101.4,158.1z"/>
</svg>
