<?xml version="1.0" encoding="utf-8"?>
<!-- Generator: Adobe Illustrator 21.0.0, SVG Export Plug-In . SVG Version: 6.00 Build 0)  -->
<svg version="1.1" id="图层_1" xmlns="http://www.w3.org/2000/svg" xmlns:xlink="http://www.w3.org/1999/xlink" x="0px"
     y="0px"
     viewBox="0 0 200 200" style="enable-background:new 0 0 200 200;" xml:space="preserve">
<style type="text/css">
	.st0{fill:#BEC9D7;}
</style>
  <path class="st0" d="M137.2,98.8c-30.7,11.9-40.3,55.1-28.4,85.7c1.2,3.1,2.7,6.1,4.4,9L0.6,193.2c-4.7-39.9,17.8-86.6,55-101.7
	c-20.1-18.6-21.3-50-2.6-70.1s50-21.3,70.1-2.6s21.3,50,2.6,70.1c-0.8,0.9-1.7,1.8-2.6,2.6C128,93.5,132.8,96,137.2,98.8L137.2,98.8
	z M125.8,117.6c4.5-4,9.8-7,15.6-9c3.3,4.1,8.3,6.7,14,6.7s10.7-2.6,14-6.7c5.8,1.9,11.2,5,15.8,9.1c-2,5.1-1.5,10.7,1.2,15.4
	c2.8,4.9,7.6,7.9,12.8,8.7c1.2,6,1.3,12.2,0,18.2c-5.4,0.8-10.1,4-12.8,8.7c-2.7,4.7-3.1,10.4-1.2,15.5c-4.6,4.1-10,7.2-15.9,9.2
	c-3.4-4.3-8.5-6.7-14-6.7c-5.6,0-10.7,2.6-13.9,6.7c-6.1-2-11.7-5.4-16.4-9.8c1.9-5,1.4-10.6-1.3-15.2c-2.7-4.7-7.1-7.6-12-8.6
	c-1.3-6.3-1.2-12.7,0.3-18.9c5.3-0.9,9.9-4.1,12.5-8.7C127,127.7,127.4,122.3,125.8,117.6L125.8,117.6z M155.4,168.9
	c9.9,0,17.9-8,17.9-17.9c0-9.9-8-17.9-17.9-17.9c0,0,0,0,0,0c-9.9,0-17.9,8-17.9,17.9C137.5,160.9,145.5,168.9,155.4,168.9z"/>
</svg>
