<?xml version="1.0" encoding="utf-8"?>
<!-- Generator: Adobe Illustrator 21.0.0, SVG Export Plug-In . SVG Version: 6.00 Build 0)  -->
<svg version="1.1" id="图层_1" xmlns="http://www.w3.org/2000/svg" xmlns:xlink="http://www.w3.org/1999/xlink" x="0px"
     y="0px"
     viewBox="0 0 200 200" style="enable-background:new 0 0 200 200;" xml:space="preserve">
<style type="text/css">
	.st0{fill:#BEC9D7;}
</style>
  <path class="st0" d="M186.7,112.5c-7.2-4-15.4-6.2-24.2-6.2c-27.6,0-50,22.4-50,50c0,12.3,4.5,23.7,11.9,32.4
	c-9.6,3.3-19.9,5.1-30.6,5.1C42,193.8,0,151.8,0,100S42,6.2,93.8,6.2s93.8,42,93.8,93.8C187.5,104.2,187.2,108.3,186.7,112.5
	L186.7,112.5z M199.3,166.1c0.7,0.6,0.9,1.6,0.4,2.4l-7.7,13c-0.5,0.8-1.5,1.2-2.4,0.8l-9.6-3.8c-2,1.5-4.2,2.7-6.5,3.7l-1.5,9.9
	c-0.1,0.9-0.9,1.6-1.9,1.6h-15.4c-1,0-1.8-0.7-1.9-1.6l-1.5-9.9c-2.4-0.9-4.5-2.2-6.5-3.7l-9.6,3.8c-0.8,0.3-1.9,0-2.4-0.8l-7.7-13
	c-0.5-0.8-0.3-1.8,0.5-2.4l8.1-6.2c-0.2-1.2-0.3-2.4-0.3-3.7c0-1.2,0.1-2.5,0.3-3.7l-8.1-6.2c-0.7-0.6-1-1.6-0.5-2.4l7.7-13
	c0.5-0.8,1.5-1.2,2.4-0.8l9.6,3.8c2-1.5,4.2-2.7,6.5-3.7l1.5-9.9c0.1-0.9,0.9-1.6,1.9-1.6h15.4c1,0,1.8,0.7,1.9,1.6l1.5,9.9
	c2.4,0.9,4.5,2.2,6.5,3.7l9.6-3.8c0.8-0.3,1.9,0,2.4,0.8l7.7,13c0.5,0.8,0.3,1.8-0.5,2.4l-8.1,6.2c0.2,1.2,0.3,2.4,0.3,3.7
	c0,1.3-0.1,2.5-0.3,3.7L199.3,166.1L199.3,166.1z M162.5,168.8c6.9,0,12.5-5.6,12.5-12.5s-5.6-12.5-12.5-12.5s-12.5,5.6-12.5,12.5
	S155.6,168.8,162.5,168.8z M64.8,116.7c-6.1,0-9.1,1.8-9.1,5.4c0,3.5,3,5.3,9.1,5.3h14.5v4.6c0,7.8,2.9,11.7,8.8,11.7
	c5.8,0,8.7-3.9,8.7-11.7v-4.6h14.5c6,0,9.1-1.8,9.1-5.3c0-3.6-3-5.4-9.1-5.4H96.8v-8.3h14.5c6,0,9.1-1.8,9.1-5.4
	c0-3.5-3-5.3-9.1-5.3h-8.2l18.5-27.4c1.2-1.7,2-3.1,2.5-4.2c0.5-1.1,0.8-2.3,0.8-3.7c0-1.7-0.7-3.1-2-4.3s-3.1-1.8-5.2-1.8
	c-1.5,0-2.8,0.3-3.9,0.8c-1.1,0.5-2,1.2-2.7,2c-0.7,0.8-1.5,1.8-2.3,3c-0.7,1.1-1.5,2.2-2.2,3.4L88.1,93L67.3,63.8
	c-1.8-2.7-3.4-4.6-4.7-5.8c-1.4-1.2-3.1-1.8-5.3-1.8c-2.1,0-3.9,0.6-5.2,1.8c-1.4,1.2-2,2.8-2,4.8c0,1.1,0.2,2.1,0.7,3.1
	c0.5,0.9,1.5,2.5,3,4.6L73,97.6h-8.2c-6.1,0-9.1,1.8-9.1,5.3c0,3.6,3,5.4,9.1,5.4h14.5v8.3C79.3,116.7,64.8,116.7,64.8,116.7z"/>
</svg>
